<svg xmlns="http://www.w3.org/2000/svg" width="900" height="440" viewBox="0 0 900 440">
<style>text{font-family:Arial,sans-serif;fill:#202124}.axis{stroke:#555}.grid{stroke:#ddd}.iso{stroke:#2369a6;fill:none;stroke-width:3}.custom{stroke:#d36b25;fill:none;stroke-width:3}</style>
<text x="450.0" y="28" text-anchor="middle" font-size="19">Transaction success rate</text>
<line class="grid" x1="90" y1="375.0" x2="850" y2="375.0"/>
<text x="80" y="379.0" text-anchor="end" font-size="12">0.0</text>
<line class="grid" x1="90" y1="311.0" x2="850" y2="311.0"/>
<text x="80" y="315.0" text-anchor="end" font-size="12">20.0</text>
<line class="grid" x1="90" y1="247.0" x2="850" y2="247.0"/>
<text x="80" y="251.0" text-anchor="end" font-size="12">40.0</text>
<line class="grid" x1="90" y1="183.0" x2="850" y2="183.0"/>
<text x="80" y="187.0" text-anchor="end" font-size="12">60.0</text>
<line class="grid" x1="90" y1="119.0" x2="850" y2="119.0"/>
<text x="80" y="123.0" text-anchor="end" font-size="12">80.0</text>
<line class="grid" x1="90" y1="55.0" x2="850" y2="55.0"/>
<text x="80" y="59.0" text-anchor="end" font-size="12">100.0</text>
<line class="axis" x1="90" y1="55" x2="90" y2="375"/>
<line class="axis" x1="90" y1="375" x2="850" y2="375"/>
<text x="90.0" y="398" text-anchor="middle" font-size="12">0.00%</text>
<text x="343.3" y="398" text-anchor="middle" font-size="12">0.01%</text>
<text x="596.7" y="398" text-anchor="middle" font-size="12">0.05%</text>
<text x="850.0" y="398" text-anchor="middle" font-size="12">0.10%</text>
<circle fill="#2369a6" cx="90.0" cy="55.0" r="5"/>
<circle fill="#2369a6" cx="343.3" cy="55.0" r="5"/>
<circle fill="#2369a6" cx="596.7" cy="55.0" r="5"/>
<circle fill="#2369a6" cx="850.0" cy="55.0" r="5"/>
<polyline class="iso" points="90.0,55.0 343.3,55.0 596.7,55.0 850.0,55.0"/>
<circle fill="#d36b25" cx="90.0" cy="55.0" r="5"/>
<circle fill="#d36b25" cx="343.3" cy="65.7" r="5"/>
<circle fill="#d36b25" cx="596.7" cy="108.3" r="5"/>
<circle fill="#d36b25" cx="850.0" cy="97.7" r="5"/>
<polyline class="custom" points="90.0,55.0 343.3,65.7 596.7,108.3 850.0,97.7"/>
<text x="450.0" y="430" text-anchor="middle" font-size="13">software omission rate</text>
<text transform="translate(18 220.0) rotate(-90)" text-anchor="middle" font-size="13">percent</text>
<rect x="620" y="45" width="12" height="12" fill="#2369a6"/><text x="638" y="56" font-size="12">RAW_ISO-TP</text><rect x="760" y="45" width="12" height="12" fill="#d36b25"/><text x="778" y="56" font-size="12">Custom</text>
</svg>